<svg width="28" height="25" viewBox="0 0 28 25" fill="none" xmlns="http://www.w3.org/2000/svg">
<g filter="url(#filter0_d_0_307)">
<path fill-rule="evenodd" clip-rule="evenodd" d="M22.6364 3H5.36364C4.61 3 4 2.328 4 1.5C4 0.672 4.61 0 5.36364 0H22.6364C23.3891 0 24 0.672 24 1.5C24 2.328 23.3891 3 22.6364 3ZM5.36364 7H22.6364C23.3891 7 24 7.672 24 8.5C24 9.328 23.3891 10 22.6364 10H5.36364C4.61 10 4 9.328 4 8.5C4 7.672 4.61 7 5.36364 7ZM22.6364 14H5.36364C4.61 14 4 14.672 4 15.5C4 16.328 4.61 17 5.36364 17H22.6364C23.3891 17 24 16.328 24 15.5C24 14.672 23.3891 14 22.6364 14Z" fill="#1F2022"/>
</g>
<defs>
<filter id="filter0_d_0_307" x="0" y="0" width="28" height="25" filterUnits="userSpaceOnUse" color-interpolation-filters="sRGB">
<feFlood flood-opacity="0" result="BackgroundImageFix"/>
<feColorMatrix in="SourceAlpha" type="matrix" values="0 0 0 0 0 0 0 0 0 0 0 0 0 0 0 0 0 0 127 0" result="hardAlpha"/>
<feOffset dy="4"/>
<feGaussianBlur stdDeviation="2"/>
<feComposite in2="hardAlpha" operator="out"/>
<feColorMatrix type="matrix" values="0 0 0 0 0 0 0 0 0 0 0 0 0 0 0 0 0 0 0.25 0"/>
<feBlend mode="normal" in2="BackgroundImageFix" result="effect1_dropShadow_0_307"/>
<feBlend mode="normal" in="SourceGraphic" in2="effect1_dropShadow_0_307" result="shape"/>
</filter>
</defs>
</svg>
